<?xml version="1.0" encoding="UTF-8"?>
<svg id="Layer_2" data-name="Layer 2" xmlns="http://www.w3.org/2000/svg" xmlns:xlink="http://www.w3.org/1999/xlink" viewBox="0 0 305.94 589.82">
  <defs>
    <style>
      .cls-1 {
        fill: url(#New_Gradient_Swatch_3);
        stroke: url(#linear-gradient);
      }

      .cls-1, .cls-2 {
        stroke-miterlimit: 10;
        stroke-width: 5px;
      }

      .cls-2 {
        fill: url(#New_Gradient_Swatch_2);
        stroke: url(#New_Gradient_Swatch_5);
      }
    </style>
    <radialGradient id="New_Gradient_Swatch_2" data-name="New Gradient Swatch 2" cx="149.58" cy="122.33" fx="149.58" fy="122.33" r="539.59" gradientUnits="userSpaceOnUse">
      <stop offset="0" stop-color="#ef444a"/>
      <stop offset=".14" stop-color="#ed434b"/>
      <stop offset=".18" stop-color="#e64352"/>
      <stop offset=".22" stop-color="#da425c"/>
      <stop offset=".25" stop-color="#c9416c"/>
      <stop offset=".27" stop-color="#b34080"/>
      <stop offset=".29" stop-color="#9c3f97"/>
      <stop offset=".41" stop-color="#9a3e95"/>
      <stop offset=".45" stop-color="#933c8f"/>
      <stop offset=".48" stop-color="#873786"/>
      <stop offset=".5" stop-color="#763278"/>
      <stop offset=".52" stop-color="#602a66"/>
      <stop offset=".54" stop-color="#452150"/>
      <stop offset=".56" stop-color="#251636"/>
      <stop offset=".57" stop-color="#0d0e22"/>
      <stop offset=".7" stop-color="#0e0e23"/>
      <stop offset=".75" stop-color="#151127"/>
      <stop offset=".78" stop-color="#21152e"/>
      <stop offset=".81" stop-color="#321c39"/>
      <stop offset=".83" stop-color="#482447"/>
      <stop offset=".85" stop-color="#632e58"/>
      <stop offset=".87" stop-color="#843a6c"/>
      <stop offset=".88" stop-color="#a94984"/>
      <stop offset=".9" stop-color="#d2589e"/>
      <stop offset=".9" stop-color="#d95ba2"/>
    </radialGradient>
    <linearGradient id="New_Gradient_Swatch_5" data-name="New Gradient Swatch 5" x1="2.23" y1="294.91" x2="303.72" y2="294.91" gradientUnits="userSpaceOnUse">
      <stop offset="0" stop-color="#9c4098"/>
      <stop offset=".21" stop-color="#f0575c"/>
      <stop offset=".42" stop-color="#f58358"/>
      <stop offset=".63" stop-color="#fee93d"/>
      <stop offset=".9" stop-color="#d85ca2"/>
      <stop offset="1" stop-color="#111323"/>
    </linearGradient>
    <linearGradient id="New_Gradient_Swatch_3" data-name="New Gradient Swatch 3" x1="303.44" y1="310.61" x2="2.5" y2="310.61" gradientUnits="userSpaceOnUse">
      <stop offset="0" stop-color="#ef444a"/>
      <stop offset=".29" stop-color="#9c3f97"/>
      <stop offset=".57" stop-color="#0d0e22"/>
      <stop offset=".6" stop-color="#141026"/>
      <stop offset=".65" stop-color="#271832"/>
      <stop offset=".71" stop-color="#482447"/>
      <stop offset=".78" stop-color="#753563"/>
      <stop offset=".85" stop-color="#ad4a86"/>
      <stop offset=".9" stop-color="#d95ba2"/>
    </linearGradient>
    <linearGradient id="linear-gradient" x1="0" y1="310.61" x2="305.94" y2="310.61" gradientUnits="userSpaceOnUse">
      <stop offset="0" stop-color="#8e55a2"/>
      <stop offset=".08" stop-color="#f0699a"/>
      <stop offset=".24" stop-color="#f0575c"/>
      <stop offset=".42" stop-color="#f58358"/>
      <stop offset=".63" stop-color="#fee93d"/>
      <stop offset=".9" stop-color="#9c3f97"/>
      <stop offset="1" stop-color="#1b1951"/>
    </linearGradient>
  </defs>
  <g id="Layer_1-2" data-name="Layer 1">
    <g>
      <g id="Keyhole">
        <path class="cls-2" d="M284.22,587.32H21.72c-11.23,0-19.36-10.7-16.37-21.52L94.04,245.7c1.98-7.15-.91-14.76-7.14-18.78-33.61-21.71-55.86-59.5-55.86-102.49C31.04,57.09,85.63,2.5,152.97,2.5s121.93,54.59,121.93,121.92c0,42.99-22.24,80.78-55.86,102.49-6.23,4.03-9.12,11.63-7.14,18.78l88.68,320.11c3,10.82-5.14,21.52-16.37,21.52Z"/>
      </g>
      <path class="cls-1" d="M298.94,559.85h-170.43c-5.47,0-9.91-4.43-9.91-9.91v-3.08c0-5.47,4.43-9.91,9.91-9.91h164.09l-7.61-27.47h-156.48c-5.47,0-9.91-4.43-9.91-9.91v-3.09c0-5.47,4.43-9.91,9.91-9.91h150.14l-5.82-21.46c-.96-3.55-4.18-6.01-7.86-6.01h-77.77c-5.47,0-9.91-4.43-9.91-9.91v-75.54c0-5.47,4.43-9.91,9.91-9.91h44.4c6.55,0,11.3-6.24,9.55-12.55l-51.57-139.34c-1.58-4.15.09-8.83,3.94-11.03,7.68-4.39,19.9-11.78,25.5-17.33,8.49-8.42,14.9-19.03,19.24-31.86,3.38-10.02,4.94-20.72,4.68-32.09-.12-5.38-4.53-9.69-9.91-9.69h-83.74c-5.47,0-9.91,4.43-9.91,9.91v16.95c0,5.47,4.43,9.91,9.91,9.91h25.82c9.59,0,13.57,12.44,5.65,17.86-.07.05-.15.1-.22.15-7.35,4.98-16.25,7.47-26.71,7.47-13.39,0-24.66-4.81-33.81-14.46-9.15-9.63-13.73-21.48-13.73-35.53s4.58-25.89,13.73-35.53c9.15-9.64,20.42-14.46,33.81-14.46,9.48,0,17.93,2.45,25.37,7.35,5.26,3.47,9.59,7.63,13.01,12.49,2.57,3.65,7.35,5.02,11.52,3.43l20.27-7.69c5.96-2.26,8.25-9.47,4.72-14.78-6.2-9.32-14.5-17.52-24.9-24.57-14.21-9.64-30.87-14.46-49.99-14.46-25.65,0-47.17,8.5-64.57,25.49-17.39,16.99-26.09,37.9-26.09,62.73s8.7,45.75,26.09,62.73c5.81,5.68,16.42,12.13,23.36,16.06,3.85,2.18,5.53,6.83,3.99,10.98l-51.8,139.33c-1.75,6.31,3,12.55,9.55,12.55h44.57c5.47,0,9.91,4.43,9.91,9.91v75.54c0,5.47-4.43,9.91-9.91,9.91H42.44c-4.45,0-8.36,2.97-9.55,7.26l-30.03,108.39c-1.75,6.31,3,12.55,9.55,12.55h281.11c6.55,0,11.29-6.24,9.55-12.55l-4.13-14.92ZM161.28,240.54l10.14,28.76c2.27,6.44-2.51,13.2-9.34,13.2h-20.27c-6.83,0-11.61-6.75-9.34-13.2l10.14-28.76c3.11-8.82,15.58-8.82,18.68,0ZM113.22,323.78l2.21-6.29c1.39-3.97,5.14-6.62,9.35-6.62h54.32c4.21,0,7.95,2.66,9.35,6.63l2.21,6.29c2.26,6.44-2.52,13.19-9.35,13.19h-58.74c-6.83,0-11.61-6.75-9.35-13.19Z"/>
    </g>
  </g>
</svg>